<svg width="22" height="21" viewBox="0 0 22 21" fill="none" xmlns="http://www.w3.org/2000/svg">
<path d="M14.5905 0H6.71552C3.0917 0 0.153015 2.93869 0.153015 6.5625V14.4375C0.153015 18.0613 3.0917 21 6.71552 21H14.5905C18.2143 21 21.153 18.0613 21.153 14.4375V6.5625C21.153 2.93869 18.2143 0 14.5905 0ZM19.1843 14.4375C19.1843 16.9706 17.1236 19.0312 14.5905 19.0312H6.71552C4.18239 19.0312 2.12177 16.9706 2.12177 14.4375V6.5625C2.12177 4.02938 4.18239 1.96875 6.71552 1.96875H14.5905C17.1236 1.96875 19.1843 4.02938 19.1843 6.5625V14.4375Z" fill="#333333"/>
<path d="M10.653 5.25C7.7537 5.25 5.40302 7.60069 5.40302 10.5C5.40302 13.3993 7.7537 15.75 10.653 15.75C13.5523 15.75 15.903 13.3993 15.903 10.5C15.903 7.60069 13.5523 5.25 10.653 5.25ZM10.653 13.7812C8.84439 13.7812 7.37177 12.3086 7.37177 10.5C7.37177 8.69006 8.84439 7.21875 10.653 7.21875C12.4616 7.21875 13.9343 8.69006 13.9343 10.5C13.9343 12.3086 12.4616 13.7812 10.653 13.7812Z" fill="#333333"/>
<path d="M16.2967 5.55635C16.6831 5.55635 16.9963 5.24315 16.9963 4.85679C16.9963 4.47043 16.6831 4.15723 16.2967 4.15723C15.9104 4.15723 15.5972 4.47043 15.5972 4.85679C15.5972 5.24315 15.9104 5.55635 16.2967 5.55635Z" fill="#333333"/>
</svg>
